# xmcd
#
# Track frame offsets:
#	150
#	16636
#	28460
#	38952
#	51913
#	66314
#	83237
#	91496
#	107171
#	127406
#	144232
#	155263
#	166440
#	179044
#
# Disc length: 2609 seconds
#
# Revision: 0
# Processed by: cddbd v1.5.1PL0 Copyright (c) Steve Scherf et al.
# Submitted via: dBpowerAMP V4.0
#
DISCID=c70a2f0e
DTITLE=The Burson Family - Dancing With Daddy
DYEAR=2005
DGENRE=western
TTITLE0=Dancing With Daddy
TTITLE1=The Road to Spencer
TTITLE2=Drover's Lullaby
TTITLE3=Up and Blower Away
TTITLE4=A Women's Life
TTITLE5=When the Grass Was Still Deep
TTITLE6=Dale's Waltz
TTITLE7=Another Trip on the Bay
TTITLE8=Johnny Dear
TTITLE9=Seventeen
TTITLE10=Education Blues
TTITLE11=Hell After the Yearlin's
TTITLE12=Down on the Creek
TTITLE13=A Life More than This
EXTD=
EXTT0=
EXTT1=
EXTT2=
EXTT3=
EXTT4=
EXTT5=
EXTT6=
EXTT7=
EXTT8=
EXTT9=
EXTT10=
EXTT11=
EXTT12=
EXTT13=
PLAYORDER=
